# xmcd CD database file
#
# Track frame offsets:
#	150
#	19160
#	31925
#	48298
#	57238
#	69003
#	85213
#	98703
#	114928
#	129670
#	141448
#	157608
#
# Disc length: 2482 seconds
#
# Revision: 0
# Processed by: cddbd v1.5.1PL0 Copyright (c) Steve Scherf et al.
# Submitted via: CDex 1.60beta1
#
DISCID=8e09b00c
DTITLE=Ray Charles - Ray Charles Big Artist Album
DYEAR=1900
DGENRE=Jazz
TTITLE0=I Can't Stop Loving You
TTITLE1=Unchain My Heart
TTITLE2=Georgia On My Mind
TTITLE3=Hit The Road Jack
TTITLE4=Don't Set Me Free
TTITLE5=America The Beautiful
TTITLE6=You Are My Sunshine
TTITLE7=Without Love
TTITLE8=You Don't Know Me
TTITLE9=Baby Don't You Cry
TTITLE10=Your Cheating Heart
TTITLE11=What'd I Say
EXTD=
EXTT0=
EXTT1=
EXTT2=
EXTT3=
EXTT4=
EXTT5=
EXTT6=
EXTT7=
EXTT8=
EXTT9=
EXTT10=
EXTT11=
PLAYORDER=
